# Blender v3.2.0 OBJ File: ''
# www.blender.org
mtllib Cone.mtl
o Cone
v 0.000045 -0.999998 -1.000010
v 0.195126 -0.999998 -0.980793
v 0.382712 -0.999999 -0.923886
v 0.555595 -0.999999 -0.831475
v 0.707129 -0.999999 -0.707112
v 0.831491 -0.999999 -0.555575
v 0.923901 -0.999999 -0.382688
v 0.980807 -0.999999 -0.195095
v 1.000024 -0.999999 -0.000005
v 0.980812 -0.999999 0.195085
v 0.923911 -0.999998 0.382677
v 0.831510 -0.999998 0.555562
v 0.707159 -0.999997 0.707096
v 0.555644 -0.999996 0.831454
v 0.382794 -0.999995 0.923856
v 0.195268 -0.999991 0.980747
v 0.000310 -0.999985 0.999934
v -0.194498 -0.999971 0.980659
v -0.381444 -0.999938 0.923615
v -0.552774 -0.999861 0.830872
v -0.700756 -0.999684 0.705750
v -0.819454 -0.999403 0.553003
v -0.909893 -0.999305 0.379695
v -0.971729 -0.999550 0.193155
v -0.995781 -0.999790 -0.000902
v -0.978948 -0.999909 -0.195483
v -0.923037 -0.999958 -0.382864
v -0.831048 -0.999979 -0.555660
v -0.706875 -0.999988 -0.707156
v -0.555432 -0.999993 -0.831499
v -0.382594 -0.999996 -0.923899
v -0.195029 -0.999997 -0.980798
v 0.000021 1.000001 -0.000005
vt 0.250000 0.490000
vt 0.250000 0.250000
vt 0.296822 0.485388
vt 0.341844 0.471731
vt 0.383337 0.449553
vt 0.419706 0.419706
vt 0.449553 0.383337
vt 0.471731 0.341844
vt 0.485388 0.296822
vt 0.490000 0.250000
vt 0.485388 0.203178
vt 0.471731 0.158156
vt 0.449553 0.116663
vt 0.419706 0.080294
vt 0.383337 0.050447
vt 0.341844 0.028269
vt 0.296822 0.014612
vt 0.250000 0.010000
vt 0.203178 0.014612
vt 0.158156 0.028269
vt 0.116663 0.050447
vt 0.080294 0.080294
vt 0.050447 0.116663
vt 0.028269 0.158156
vt 0.014612 0.203178
vt 0.010000 0.250000
vt 0.014612 0.296822
vt 0.028269 0.341844
vt 0.050447 0.383337
vt 0.080294 0.419706
vt 0.116663 0.449553
vt 0.158156 0.471731
vt 0.750000 0.490000
vt 0.796822 0.485388
vt 0.841844 0.471731
vt 0.883337 0.449553
vt 0.919706 0.419706
vt 0.949553 0.383337
vt 0.971731 0.341844
vt 0.985388 0.296822
vt 0.990000 0.250000
vt 0.985388 0.203178
vt 0.971731 0.158156
vt 0.949553 0.116663
vt 0.919706 0.080294
vt 0.883337 0.050447
vt 0.841844 0.028269
vt 0.796822 0.014612
vt 0.750000 0.010000
vt 0.703178 0.014612
vt 0.658156 0.028269
vt 0.616663 0.050447
vt 0.580294 0.080294
vt 0.550447 0.116663
vt 0.528269 0.158156
vt 0.514612 0.203178
vt 0.510000 0.250000
vt 0.514612 0.296822
vt 0.528269 0.341844
vt 0.550447 0.383337
vt 0.580294 0.419706
vt 0.616663 0.449553
vt 0.658156 0.471731
vt 0.703178 0.485388
vt 0.203178 0.485388
vn -0.0001 -0.5033 -0.8641
vn -0.0011 1.0000 0.0005
vn 0.1685 -0.5033 -0.8475
vn 0.3306 -0.5033 -0.7983
vn 0.4800 -0.5033 -0.7185
vn 0.6110 -0.5034 -0.6110
vn 0.7184 -0.5034 -0.4801
vn 0.7983 -0.5034 -0.3307
vn 0.8475 -0.5034 -0.1685
vn 0.8641 -0.5033 0.0001
vn 0.8475 -0.5033 0.1686
vn 0.7983 -0.5033 0.3308
vn 0.7184 -0.5033 0.4801
vn 0.6109 -0.5033 0.6111
vn 0.4800 -0.5033 0.7185
vn 0.3306 -0.5033 0.7984
vn 0.1684 -0.5033 0.8476
vn -0.0003 -0.5032 0.8641
vn -0.1695 -0.5032 0.8474
vn -0.3334 -0.5030 0.7974
vn -0.4870 -0.5027 0.7143
vn -0.6229 -0.5030 0.5992
vn -0.7249 -0.5068 0.4666
vn -0.7927 -0.5091 0.3354
vn -0.8424 -0.5047 0.1887
vn -0.8644 -0.5026 0.0151
vn -0.8491 -0.5028 -0.1620
vn -0.7995 -0.5031 -0.3283
vn -0.7191 -0.5032 -0.4792
vn -0.6114 -0.5032 -0.6107
vn -0.4803 -0.5033 -0.7184
vn -0.3308 -0.5033 -0.7983
vn -0.1687 -0.5033 -0.8475
usemtl None
s 1
f 1/1/1 33/2/2 2/3/3
f 2/3/3 33/2/2 3/4/4
f 3/4/4 33/2/2 4/5/5
f 4/5/5 33/2/2 5/6/6
f 5/6/6 33/2/2 6/7/7
f 6/7/7 33/2/2 7/8/8
f 7/8/8 33/2/2 8/9/9
f 8/9/9 33/2/2 9/10/10
f 9/10/10 33/2/2 10/11/11
f 10/11/11 33/2/2 11/12/12
f 11/12/12 33/2/2 12/13/13
f 12/13/13 33/2/2 13/14/14
f 13/14/14 33/2/2 14/15/15
f 14/15/15 33/2/2 15/16/16
f 15/16/16 33/2/2 16/17/17
f 16/17/17 33/2/2 17/18/18
f 17/18/18 33/2/2 18/19/19
f 18/19/19 33/2/2 19/20/20
f 19/20/20 33/2/2 20/21/21
f 20/21/21 33/2/2 21/22/22
f 21/22/22 33/2/2 22/23/23
f 22/23/23 33/2/2 23/24/24
f 23/24/24 33/2/2 24/25/25
f 24/25/25 33/2/2 25/26/26
f 25/26/26 33/2/2 26/27/27
f 26/27/27 33/2/2 27/28/28
f 27/28/28 33/2/2 28/29/29
f 28/29/29 33/2/2 29/30/30
f 29/30/30 33/2/2 30/31/31
f 30/31/31 33/2/2 31/32/32
f 1/33/1 2/34/3 3/35/4 4/36/5 5/37/6 6/38/7 7/39/8 8/40/9 9/41/10 10/42/11 11/43/12 12/44/13 13/45/14 14/46/15 15/47/16 16/48/17 17/49/18 18/50/19 19/51/20 20/52/21 21/53/22 22/54/23 23/55/24 24/56/25 25/57/26 26/58/27 27/59/28 28/60/29 29/61/30 30/62/31 31/63/32 32/64/33
f 31/32/32 33/2/2 32/65/33
f 32/65/33 33/2/2 1/1/1
